<svg width="50" height="50" viewBox="0 0 50 50" fill="none" xmlns="http://www.w3.org/2000/svg">
<path d="M50 38.7413C48.1814 39.2039 47.0567 38.7612 46.0477 37.2457C43.7824 33.8517 41.2818 30.6133 38.8689 27.3151C38.5579 26.8884 38.2348 26.4696 37.832 25.9392C34.9765 29.7918 32.1249 33.4609 29.4488 37.2776C28.4917 38.6416 27.4866 39.2358 25.6999 38.7532L36.4362 24.3439L26.4417 11.3304C28.1606 10.9954 29.3491 11.1669 30.402 12.7063C32.7271 16.1043 35.2915 19.3387 37.848 22.7606C40.4204 19.3507 42.9529 16.1122 45.3458 12.7462C46.3069 11.3822 47.3399 10.8638 49.0668 11.3663C47.7586 13.1012 46.4784 14.8081 45.1902 16.5031C43.4514 18.7883 41.7444 21.1015 39.9418 23.3389C39.2997 24.1365 39.4034 24.655 39.9777 25.4087C43.3118 29.7918 46.606 34.2187 50 38.7413ZM0.0119646 24.1046C0.299115 22.6649 0.490548 21.1972 0.889368 19.7854C3.28228 11.2387 13.0932 7.68519 19.8333 12.9815C23.7816 16.0883 24.7627 20.4674 24.5673 25.4047H2.31315C1.97814 34.2625 8.35527 39.6107 16.4832 36.8828C19.3348 35.9256 21.0138 33.6922 21.8553 30.9005C22.282 29.5006 22.988 29.2813 24.3041 29.6801C23.6301 33.1737 22.1026 36.0931 18.912 37.9197C14.1262 40.6556 7.29441 39.7702 3.70104 35.9695C1.57933 33.7361 0.677993 30.9563 0.279174 27.9532C0.219351 27.4746 0.0957167 27.004 0 26.5294C0.00797639 25.7211 0.0119646 24.9129 0.0119646 24.1046ZM2.35303 23.5104H22.4655C22.3339 17.1053 18.3457 12.5548 12.8938 12.5149C6.91154 12.467 2.61227 16.9099 2.35303 23.5104Z" fill="black"/>
</svg>
