<svg width="51" height="50" viewBox="0 0 51 50" fill="none" xmlns="http://www.w3.org/2000/svg">
<path fill-rule="evenodd" clip-rule="evenodd" d="M18.5558 2.60413C13.8575 2.60413 10.0488 6.41281 10.0488 11.1111C10.0488 13.9784 11.4674 16.5144 13.641 18.0555C11.4674 19.5966 10.0488 22.1327 10.0488 25C10.0488 27.8673 11.4674 30.4033 13.6411 31.9443C11.4674 33.4856 10.0488 36.0214 10.0488 38.8889C10.0488 43.587 13.8575 47.3958 18.5558 47.3958C23.254 47.3958 27.0628 43.587 27.0628 38.8889V31.5883C28.5288 32.7875 30.4028 33.5068 32.4447 33.5068C37.143 33.5068 40.9515 29.6983 40.9515 25C40.9515 22.1327 39.533 19.5966 37.3595 18.0555C39.533 16.5144 40.9515 13.9784 40.9515 11.1111C40.9515 6.41281 37.143 2.60413 32.4447 2.60413H18.5558ZM23.9378 30.3818H18.5558C15.5834 30.3818 13.1738 27.9722 13.1738 25C13.1738 22.0277 15.5834 19.618 18.5558 19.618L23.9378 19.618V25V30.3818ZM18.5558 16.493H23.9378V5.72913H18.5558C15.5834 5.72913 13.1738 8.13871 13.1738 11.1111C13.1738 14.0834 15.5834 16.493 18.5558 16.493ZM37.8265 11.1111C37.8265 14.0815 35.4201 16.4899 32.4505 16.493L29.7565 16.493H27.0628V5.72913H32.4447C35.417 5.72913 37.8265 8.13871 37.8265 11.1111ZM27.0628 24.9933C27.0663 22.0262 29.4709 19.6216 32.438 19.618H32.4499C35.4199 19.6208 37.8265 22.0293 37.8265 25C37.8265 27.9722 35.417 30.3818 32.4447 30.3818C29.4745 30.3818 27.0663 27.9758 27.0628 25.0066V24.9933ZM18.5558 33.5068C15.5834 33.5068 13.1738 35.9164 13.1738 38.8889C13.1738 41.8612 15.5834 44.2708 18.5558 44.2708C21.5282 44.2708 23.9378 41.8612 23.9378 38.8889V33.5068H18.5558Z" fill="#2F2F2F"/>
</svg>
