<svg width="50" height="50" viewBox="0 0 50 50" fill="none" xmlns="http://www.w3.org/2000/svg">
<path d="M45.3747 11.0789L27.1406 0.491238C25.9907 -0.163746 24.4934 -0.163746 23.3343 0.491238L4.90547 11.0789C3.71872 11.7616 2.87891 13.0447 2.87891 14.4171V35.5643C2.87891 36.9367 3.74064 38.2202 4.92739 38.9066L9.79635 41.6721C12.1235 42.8183 12.946 42.8183 14.005 42.8183C17.4506 42.8183 19.4189 40.7347 19.4189 37.1005V16.2228C19.4189 15.928 19.2655 15.4893 18.976 15.4893H16.6509C16.3565 15.4893 15.6974 15.928 15.6974 16.2224V37.1C15.6974 38.711 14.2402 40.3142 11.5169 38.9525L6.48587 36.0526C6.31054 35.9575 6.18691 35.7661 6.18691 35.5643V14.4171C6.18691 14.2178 6.4164 14.0176 6.59296 13.9155L24.9623 3.34604C25.1339 3.24887 25.3861 3.24887 25.5573 3.34604L43.7025 13.913C43.8762 14.0176 43.815 14.2116 43.815 14.4171V35.5643C43.815 35.7661 43.8907 35.9625 43.7191 36.0597L25.4895 46.6354C25.3332 46.7292 25.1393 46.7292 24.9681 46.6354L20.2926 43.8446C20.1516 43.7628 19.9842 43.7334 19.8489 43.8091C18.5481 44.5463 18.3082 44.6443 17.088 45.0674C16.7878 45.172 16.3449 45.3535 17.2575 45.865L23.3765 49.4848C23.9607 49.8222 24.6234 49.9999 25.298 50C25.977 50 26.6419 49.8238 27.2279 49.4848L45.3743 38.9066C46.561 38.2153 47.1234 36.9367 47.1234 35.5643V14.4171C47.1234 13.0447 46.561 11.7649 45.3747 11.0789ZM30.9597 32.2133C26.111 32.2133 25.0429 30.8756 24.6869 28.4645C24.6455 28.2048 24.4251 27.8943 24.1609 27.8943H21.7912C21.498 27.8943 21.2623 28.2499 21.2623 28.5418C21.2623 31.629 22.9407 35.3695 30.9601 35.3695C36.7652 35.3695 40.0935 33.1139 40.0935 29.122C40.0935 25.164 37.4194 24.1252 31.7896 23.3801C26.099 22.628 25.5209 22.248 25.5209 20.9148C25.5209 19.8157 26.0105 18.3499 30.2241 18.3499C33.989 18.3499 35.3767 19.1579 35.9477 21.6955C35.9965 21.9341 36.2144 22.1053 36.4605 22.1053H38.8398C38.9861 22.1053 39.1259 22.0462 39.2284 21.9415C39.3277 21.8291 39.3802 21.6881 39.367 21.5367C38.9985 17.1669 36.0954 15.1304 30.2237 15.1304C25.0007 15.1304 21.885 17.336 21.885 21.0331C21.885 25.0432 24.985 26.1514 29.9987 26.6472C35.9965 27.2352 36.463 28.1118 36.463 29.2915C36.463 31.3404 34.8181 32.2133 30.9597 32.2133Z" fill="#2F2F2F"/>
</svg>
