<svg width="51" height="50" viewBox="0 0 51 50" fill="none" xmlns="http://www.w3.org/2000/svg">
<path d="M40.7063 17.6102C40.2 17.4415 39.6937 17.2821 39.1875 17.1321C39.2719 16.7852 39.3469 16.4384 39.4219 16.0915C40.575 10.504 39.8156 6.01335 37.2562 4.5321C34.7906 3.11648 30.7687 4.58835 26.7 8.1321C26.2969 8.47898 25.9031 8.8446 25.5281 9.21023C25.275 8.96648 25.0125 8.72273 24.75 8.48835C20.4844 4.70085 16.2094 3.1071 13.65 4.59773C11.1938 6.02273 10.4625 10.2509 11.4938 15.5384C11.5969 16.0634 11.7094 16.579 11.8406 17.104C11.2406 17.2727 10.65 17.4602 10.0969 17.6571C5.09062 19.3915 1.5 22.129 1.5 24.9602C1.5 27.8852 5.325 30.8196 10.5281 32.6009C10.95 32.7415 11.3719 32.8821 11.8031 33.004C11.6625 33.5665 11.5406 34.1196 11.4281 34.6915C10.4437 39.8946 11.2125 44.0196 13.6688 45.4352C16.2 46.8977 20.4562 45.3977 24.6 41.7696C24.9281 41.479 25.2562 41.179 25.5844 40.8602C25.9969 41.2634 26.4281 41.6477 26.8594 42.0227C30.8719 45.4727 34.8375 46.8696 37.2844 45.454C39.8156 43.9915 40.6406 39.5571 39.5719 34.1571C39.4875 33.7446 39.3937 33.3227 39.2906 32.8915C39.5906 32.8071 39.8812 32.7134 40.1719 32.6196C45.5812 30.829 49.5 27.9321 49.5 24.9602C49.5 22.1196 45.8063 19.3634 40.7063 17.6102ZM28.0219 9.65085C31.5094 6.61335 34.7625 5.42273 36.2438 6.27585C37.8281 7.18523 38.4375 10.8602 37.4437 15.6884C37.3781 16.0071 37.3125 16.3165 37.2281 16.6259C35.1469 16.1571 33.0375 15.8196 30.9187 15.6321C29.7 13.8884 28.3688 12.2196 26.925 10.654C27.2906 10.3071 27.6469 9.97898 28.0219 9.65085ZM17.175 29.8259C17.6531 30.6415 18.1406 31.4571 18.6562 32.254C17.1938 32.0946 15.7406 31.8602 14.3063 31.5509C14.7188 30.2009 15.2344 28.804 15.8344 27.379C16.2656 28.204 16.7062 29.0196 17.175 29.8259ZM14.3344 18.5477C15.6844 18.2477 17.1187 18.004 18.6094 17.8165C18.1125 18.5946 17.625 19.3915 17.1656 20.1977C16.7063 20.9946 16.2562 21.8102 15.8344 22.6352C15.2437 21.2384 14.7469 19.8696 14.3344 18.5477ZM16.9031 25.0071C17.5219 23.7134 18.1969 22.4477 18.9094 21.2009C19.6219 19.954 20.3906 18.7446 21.1969 17.554C22.6031 17.4509 24.0375 17.3946 25.5 17.3946C26.9625 17.3946 28.4062 17.4509 29.8031 17.554C30.6 18.7352 31.3594 19.9446 32.0813 21.1821C32.8031 22.4196 33.4781 23.6852 34.1156 24.9696C33.4875 26.2634 32.8125 27.5384 32.0906 28.7946C31.3781 30.0415 30.6188 31.2509 29.8219 32.4509C28.425 32.554 26.9719 32.6009 25.5 32.6009C24.0281 32.6009 22.6031 32.554 21.225 32.4696C20.4094 31.279 19.6406 30.0602 18.9188 28.8134C18.1969 27.5665 17.5312 26.3009 16.9031 25.0071ZM33.8344 29.8071C34.3125 28.9821 34.7625 28.1477 35.2031 27.304C35.8031 28.6634 36.3281 30.0415 36.7875 31.4571C35.3344 31.7852 33.8625 32.0384 32.3812 32.2071C32.8875 31.4196 33.3656 30.6134 33.8344 29.8071ZM35.1844 22.6352C34.7437 21.8102 34.2937 20.9852 33.825 20.179C33.3656 19.3821 32.8875 18.5946 32.3906 17.8165C33.9 18.004 35.3438 18.2571 36.6937 18.5665C36.2625 19.954 35.7562 21.304 35.1844 22.6352ZM25.5188 12.0884C26.5031 13.1571 27.4312 14.2821 28.2937 15.4446C26.4375 15.3602 24.5719 15.3602 22.7156 15.4446C23.6344 14.2352 24.5813 13.1102 25.5188 12.0884ZM14.6437 6.34148C16.2188 5.42273 19.7156 6.73523 23.4 9.99773C23.6344 10.204 23.8688 10.429 24.1125 10.654C22.6594 12.2196 21.3187 13.8884 20.0906 15.6321C17.9719 15.8196 15.8719 16.1477 13.7906 16.6071C13.6688 16.129 13.5656 15.6415 13.4625 15.154C12.5813 10.6165 13.1625 7.1946 14.6437 6.34148ZM12.3469 31.054C11.9531 30.9415 11.5688 30.8196 11.1844 30.6884C9.1875 30.0602 6.91875 29.0665 5.27813 27.7634C4.33125 27.1071 3.69375 26.0946 3.51562 24.9602C3.51562 23.2446 6.47812 21.0509 10.7531 19.5602C11.2875 19.3727 11.8313 19.204 12.375 19.0446C13.0125 21.079 13.7812 23.0759 14.6719 25.0071C13.7719 26.9665 12.9937 28.9915 12.3469 31.054ZM23.2781 40.2415C21.7312 41.6571 19.9406 42.7821 17.9906 43.5509C16.95 44.0477 15.75 44.0946 14.6813 43.6727C13.1906 42.8102 12.5719 39.5009 13.4156 35.0477C13.5188 34.5227 13.6313 33.9977 13.7625 33.4821C15.8625 33.9321 17.9813 34.2415 20.1281 34.4009C21.3656 36.154 22.725 37.8321 24.1781 39.4071C23.8781 39.6977 23.5781 39.979 23.2781 40.2415ZM25.575 37.9634C24.6187 36.9321 23.6625 35.7884 22.7344 34.5602C23.6344 34.5977 24.5625 34.6165 25.5 34.6165C26.4656 34.6165 27.4125 34.5977 28.35 34.5509C27.4875 35.7415 26.5594 36.8759 25.575 37.9634ZM37.8281 40.7759C37.7438 41.9196 37.1813 42.9883 36.2812 43.7102C34.7906 44.5727 31.6125 43.4477 28.1813 40.504C27.7875 40.1665 27.3937 39.8009 26.9906 39.4259C28.425 37.8415 29.7469 36.1634 30.9469 34.4009C33.0938 34.2227 35.2312 33.8946 37.3406 33.4165C37.4344 33.8009 37.5187 34.1852 37.5938 34.5602C38.0531 36.5852 38.1281 38.6946 37.8281 40.7759ZM39.5344 30.6977C39.2719 30.7821 39.0094 30.8665 38.7375 30.9415C38.0813 28.8977 37.275 26.9009 36.3469 24.9602C37.2469 23.0477 38.0063 21.079 38.6438 19.0634C39.1313 19.204 39.6 19.354 40.05 19.504C44.4188 21.004 47.4844 23.2352 47.4844 24.9415C47.4844 26.779 44.2125 29.1509 39.5344 30.6977ZM25.5 29.2915C27.8719 29.2915 29.7937 27.3696 29.7937 24.9977C29.7937 22.6259 27.8719 20.704 25.5 20.704C23.1281 20.704 21.2063 22.6259 21.2063 24.9977C21.2063 27.3696 23.1281 29.2915 25.5 29.2915Z" fill="#2F2F2F"/>
</svg>
