<svg width="51" height="50" viewBox="0 0 51 50" fill="none" xmlns="http://www.w3.org/2000/svg">
<path fill-rule="evenodd" clip-rule="evenodd" d="M25.5 10.09C18.8325 10.09 14.6675 13.4025 13 20.03C15.5 16.7175 18.4175 15.475 21.75 16.3025C23.6525 16.775 25.0125 18.1475 26.515 19.665C28.9675 22.1375 31.805 25 38 25C44.6675 25 48.8325 21.6875 50.5 15.06C48 18.3725 45.085 19.615 41.75 18.7875C39.8475 18.315 38.4875 16.9425 36.9825 15.425C34.5325 12.95 31.6975 10.09 25.5 10.09ZM13 25C6.3325 25 2.1675 28.3125 0.5 34.94C3 31.625 5.9175 30.385 9.25 31.2125C11.1525 31.685 12.5125 33.0575 14.0175 34.575C16.4675 37.0475 19.305 39.91 25.5025 39.91C32.17 39.91 36.335 36.5975 38.0025 29.97C35.5025 33.2825 32.585 34.525 29.2525 33.6975C27.35 33.225 25.99 31.8525 24.4875 30.335C22.0325 27.8625 19.195 25 13 25Z" fill="#2F2F2F"/>
</svg>
