<svg width="51" height="50" viewBox="0 0 51 50" fill="none" xmlns="http://www.w3.org/2000/svg">
<path d="M0.5 25V50H50.5V0H0.5V25ZM40.7906 23.0063C42.0609 23.3234 43.0281 23.8937 43.9234 24.8125C44.3797 25.3 45.0625 26.1953 45.1203 26.4156C45.1359 26.4813 42.9641 27.9375 41.6453 28.7516C41.5969 28.7844 41.4016 28.5812 41.1891 28.2625C40.5469 27.3266 39.8703 26.9203 38.8375 26.8469C37.3234 26.7484 36.3469 27.5391 36.3547 28.8656C36.3469 29.1906 36.4203 29.5172 36.5656 29.8016C36.9 30.4937 37.5266 30.9078 39.4625 31.7469C43.0438 33.2844 44.5734 34.3016 45.525 35.7422C46.5906 37.3531 46.8266 39.925 46.1109 41.8453C45.3141 43.9203 43.3438 45.3359 40.5766 45.8C39.7219 45.9547 37.6875 45.9297 36.7672 45.7594C34.7578 45.4016 32.8531 44.4078 31.6812 43.1063C31.2172 42.6016 30.3219 41.275 30.3797 41.1859C30.4047 41.1531 30.6078 41.0234 30.8359 40.8922C31.0641 40.7609 31.9016 40.2734 32.6922 39.8172L34.1328 38.9797L34.4344 39.4266C34.8578 40.0687 35.7766 40.9484 36.3312 41.2406C37.9266 42.0875 40.1156 41.9656 41.1984 40.9969C41.6375 40.6313 41.8828 40.0688 41.85 39.5C41.85 38.9219 41.7766 38.6625 41.475 38.2297C41.0844 37.6766 40.2953 37.2047 38.0406 36.2281C35.4609 35.1125 34.3453 34.4297 33.3375 33.3313C32.7031 32.6063 32.2312 31.7531 31.9625 30.8328C31.775 30.125 31.7266 28.35 31.8734 27.6422C32.4031 25.1437 34.2906 23.4109 37 22.8984C37.8797 22.7281 39.9297 22.7922 40.7922 23.0047L40.7906 23.0063ZM29.0562 25.0984L29.0719 27.1406H22.5609V45.6391H17.9547V27.1406H11.4531V25.1391C11.4531 24.0234 11.4781 23.0969 11.5094 23.0719C11.5344 23.0391 15.4891 23.0234 20.2906 23.0312L29.0312 23.0562L29.0562 25.0984Z" fill="#2F2F2F"/>
</svg>
